<?xml version="1.0" encoding="UTF-8" standalone="no"?>
<svg
   xmlns:dc="http://purl.org/dc/elements/1.1/"
   xmlns:cc="http://creativecommons.org/ns#"
   xmlns:rdf="http://www.w3.org/1999/02/22-rdf-syntax-ns#"
   xmlns:svg="http://www.w3.org/2000/svg"
   xmlns="http://www.w3.org/2000/svg"
   viewBox="0 0 597.18665 205.48"
   height="205.48"
   width="597.18665"
   xml:space="preserve"
   id="svg2"
   version="1.1"><metadata
     id="metadata8"><rdf:RDF><cc:Work
         rdf:about=""><dc:format>image/svg+xml</dc:format><dc:type
           rdf:resource="http://purl.org/dc/dcmitype/StillImage" /></cc:Work></rdf:RDF></metadata><defs
     id="defs6"><clipPath
       id="clipPath20"
       clipPathUnits="userSpaceOnUse"><path
         id="path18"
         d="M 0,0 H 4478.92 V 1541 H 0 Z" /></clipPath></defs><g
     transform="matrix(1.3333333,0,0,-1.3333333,0,205.48)"
     id="g10"><g
       transform="scale(0.1)"
       id="g12"><g
         id="g14"><g
           clip-path="url(#clipPath20)"
           id="g16"><path
             id="path22"
             style="fill:#565353;fill-opacity:1;fill-rule:nonzero;stroke:none"
             d="m 0,328.871 h 99.8438 v 800.906 H 0 Z" /><path
             id="path24"
             style="fill:#f14a32;fill-opacity:1;fill-rule:nonzero;stroke:none"
             d="m 959.395,732.5 v -31.855 c 0,-219.883 -155.086,-388.766 -379.219,-388.766 -224.121,0 -404.707,193.32 -404.707,415.309 0,230.507 184.836,419.592 415.332,419.592 124.277,0 247.5,-56.31 326.101,-155.089 l -70.105,-66.925 c -57.363,78.614 -154.024,130.654 -251.746,130.654 -179.516,0 -319.731,-145.518 -319.731,-325.029 0,-167.832 138.086,-327.172 311.235,-327.172 124.273,0 258.113,107.293 262.371,237.933 H 565.238 V 732.5 h 394.157" /><path
             id="path26"
             style="fill:#565353;fill-opacity:1;fill-rule:nonzero;stroke:none"
             d="M 1291.13,944.953 1148.79,620.977 h 284.68 z M 1107.36,529.629 1016.02,328.871 H 908.73 l 382.4,834.899 382.4,-834.899 h -107.29 l -91.35,200.758 h -367.53" /><path
             id="path28"
             style="fill:#11808d;fill-opacity:1;fill-rule:nonzero;stroke:none"
             d="m 3641.69,1240.7 c 0,-50.98 -41.4,-92.29 -92.45,-92.29 -51.06,0 -92.45,41.31 -92.45,92.29 0,50.99 41.39,92.32 92.45,92.32 51.05,0 92.45,-41.33 92.45,-92.32" /><path
             id="path30"
             style="fill:#f14a32;fill-opacity:1;fill-rule:nonzero;stroke:none"
             d="m 3641.69,1031.56 c 0,-50.978 -41.4,-92.306 -92.45,-92.306 -51.06,0 -92.45,41.328 -92.45,92.306 0,50.98 41.39,92.3 92.45,92.3 51.05,0 92.45,-41.32 92.45,-92.3" /><path
             id="path32"
             style="fill:#11808d;fill-opacity:1;fill-rule:nonzero;stroke:none"
             d="m 3851.2,1031.56 c 0,-50.978 -41.4,-92.294 -92.45,-92.294 -51.05,0 -92.45,41.316 -92.45,92.294 0,50.99 41.4,92.32 92.45,92.32 51.05,0 92.45,-41.33 92.45,-92.32" /><path
             id="path34"
             style="fill:#565353;fill-opacity:1;fill-rule:nonzero;stroke:none"
             d="m 3851.2,820.836 c 0,-50.977 -41.4,-92.305 -92.45,-92.305 -51.05,0 -92.45,41.328 -92.45,92.305 0,50.988 41.4,92.316 92.45,92.316 51.05,0 92.45,-41.328 92.45,-92.316" /><path
             id="path36"
             style="fill:#f14a32;fill-opacity:1;fill-rule:nonzero;stroke:none"
             d="m 4060.69,822.457 c 0,-50.984 -41.4,-92.305 -92.46,-92.305 -51.05,0 -92.45,41.321 -92.45,92.305 0,50.977 41.4,92.305 92.45,92.305 51.06,0 92.46,-41.328 92.46,-92.305" /><path
             id="path38"
             style="fill:#565353;fill-opacity:1;fill-rule:nonzero;stroke:none"
             d="m 4060.69,613.301 c 0,-50.977 -41.4,-92.301 -92.46,-92.301 -51.05,0 -92.45,41.324 -92.45,92.301 0,50.972 41.4,92.301 92.45,92.301 51.06,0 92.46,-41.329 92.46,-92.301" /><path
             id="path40"
             style="fill:#f14a32;fill-opacity:1;fill-rule:nonzero;stroke:none"
             d="m 3851.18,404.141 c 0,-50.961 -41.39,-92.262 -92.45,-92.262 -51.05,0 -92.45,41.301 -92.45,92.262 0,51 41.4,92.328 92.45,92.328 51.06,0 92.45,-41.328 92.45,-92.328" /><path
             id="path42"
             style="fill:#11808d;fill-opacity:1;fill-rule:nonzero;stroke:none"
             d="m 4270.52,404.141 c 0,-50.961 -41.39,-92.262 -92.44,-92.262 -51.07,0 -92.45,41.301 -92.45,92.262 0,51 41.38,92.328 92.45,92.328 51.05,0 92.44,-41.328 92.44,-92.328" /><path
             id="path44"
             style="fill:#565353;fill-opacity:1;fill-rule:nonzero;stroke:none"
             d="m 4270.52,822.457 c 0,-50.984 -41.39,-92.305 -92.44,-92.305 -51.07,0 -92.45,41.321 -92.45,92.305 0,50.977 41.38,92.305 92.45,92.305 51.05,0 92.44,-41.328 92.44,-92.305" /><path
             id="path46"
             style="fill:#f14a32;fill-opacity:1;fill-rule:nonzero;stroke:none"
             d="m 4478.94,1030.52 c 0,-50.985 -41.4,-92.309 -92.46,-92.309 -51.05,0 -92.45,41.324 -92.45,92.309 0,50.98 41.4,92.3 92.45,92.3 51.06,0 92.46,-41.32 92.46,-92.3" /><path
             id="path48"
             style="fill:#11808d;fill-opacity:1;fill-rule:nonzero;stroke:none"
             d="m 4270.21,1240.69 c 0,-50.98 -41.4,-92.3 -92.46,-92.3 -51.05,0 -92.45,41.32 -92.45,92.3 0,50.99 41.4,92.31 92.45,92.31 51.06,0 92.46,-41.32 92.46,-92.31" /><path
             id="path50"
             style="fill:#f14a32;fill-opacity:1;fill-rule:nonzero;stroke:none"
             d="m 4478.65,1448.79 c 0,-50.98 -41.39,-92.3 -92.45,-92.3 -51.05,0 -92.45,41.32 -92.45,92.3 0,50.98 41.4,92.31 92.45,92.31 51.06,0 92.45,-41.33 92.45,-92.31" /><path
             id="path52"
             style="fill:#565353;fill-opacity:1;fill-rule:nonzero;stroke:none"
             d="m 2167.17,624.211 h 287.93 c -31.99,64.742 -79.22,97.117 -141.68,97.117 -68.18,0 -116.93,-32.375 -146.25,-97.117 z m 391.9,-79.41 h -402.18 c 8.75,-48.371 28.65,-83.699 59.7,-105.973 31.04,-22.289 64.84,-33.418 101.4,-33.418 56.37,0 103.59,23.418 141.68,70.27 l 72.55,-54.852 c -54.47,-70.457 -127.39,-105.687 -218.8,-105.687 -70.08,0 -128.73,24 -175.95,71.988 -47.24,47.992 -70.84,107.582 -70.84,178.809 0,66.648 23.89,124.445 71.7,173.39 47.78,48.93 106.15,73.406 175.09,73.406 67.79,0 125.87,-24.851 174.25,-74.55 48.36,-49.707 72.16,-114.168 71.4,-193.383" /><path
             id="path54"
             style="fill:#565353;fill-opacity:1;fill-rule:nonzero;stroke:none"
             d="M 3026.96,472.25 V 358.559 c -50.66,-28.95 -99.79,-43.418 -147.4,-43.418 -65.12,0 -122.16,24.468 -171.09,73.418 -48.95,48.921 -73.42,105.582 -73.42,169.953 0,73.125 24.37,133.769 73.12,181.957 48.75,48.176 109.89,72.265 183.39,72.265 43.79,0 88.93,-11.425 135.4,-34.277 V 667.629 c -49.9,31.992 -97.13,47.988 -141.68,47.988 -41.13,0 -77.13,-14.476 -107.98,-43.418 -30.84,-28.953 -46.27,-62.844 -46.27,-101.691 0,-43.797 14.47,-80.649 43.41,-110.547 28.95,-29.902 64.37,-44.84 106.27,-44.84 42.65,0 91.41,19.039 146.25,57.129" /><path
             id="path56"
             style="fill:#565353;fill-opacity:1;fill-rule:nonzero;stroke:none"
             d="m 3104.12,1069.82 h 99.41 V 722.473 c 27.42,31.609 53.02,54.558 76.83,68.836 23.8,14.289 52.85,21.425 87.13,21.425 39.98,0 74.55,-15.332 103.68,-45.984 29.14,-30.664 43.7,-67.324 43.7,-109.973 V 328.281 h -99.39 v 300.5 c 0,29.707 -7.53,53.504 -22.57,71.414 -15.05,17.891 -34.95,26.848 -59.7,26.848 -35.81,0 -66.37,-13.527 -91.7,-40.559 -25.33,-27.05 -37.98,-59.804 -37.98,-98.261 V 328.281 h -99.41 v 741.539" /><g
             transform="scale(10)"
             id="g58"><text
               id="text62"
               style="font-variant:normal;font-weight:normal;font-size:110px;font-family:Verdana;-inkscape-font-specification:Verdana;writing-mode:lr-tb;fill:#565353;fill-opacity:1;fill-rule:nonzero;stroke:none"
               transform="matrix(1,0,0,-1,152.249,33.3539)"><tspan
                 id="tspan60"
                 y="0"
                 x="0">T</tspan></text>
</g><g
             transform="scale(10)"
             id="g64"><text
               id="text68"
               style="font-variant:normal;font-weight:normal;font-size:110px;font-family:Verdana;-inkscape-font-specification:Verdana;writing-mode:lr-tb;fill:#11808d;fill-opacity:1;fill-rule:nonzero;stroke:none"
               transform="matrix(1,0,0,-1,152.249,33.3539)"><tspan
                 id="tspan66"
                 y="0"
                 x="0">T</tspan></text>
</g><g
             transform="scale(10)"
             id="g70"><text
               id="text74"
               style="font-variant:normal;font-weight:normal;font-size:8px;font-family:Verdana;-inkscape-font-specification:Verdana;writing-mode:lr-tb;fill:#565353;fill-opacity:1;fill-rule:nonzero;stroke:none"
               transform="matrix(1,0,0,-1,429.033,32.2289)"><tspan
                 id="tspan72"
                 y="0"
                 x="0 5.2990937">TM</tspan></text>
</g></g></g></g></g></svg>